<?xml version="1.0" standalone="no"?>
<!DOCTYPE svg PUBLIC "-//W3C//DTD SVG 20010904//EN"
 "http://www.w3.org/TR/2001/REC-SVG-20010904/DTD/svg10.dtd">
<svg version="1.0" xmlns="http://www.w3.org/2000/svg"
 width="225.000000pt" height="225.000000pt" viewBox="0 0 225.000000 225.000000"
 preserveAspectRatio="xMidYMid meet">
<metadata>
Created by potrace 1.14, written by Peter Selinger 2001-2017
</metadata>
<g transform="translate(0.000000,225.000000) scale(0.100000,-0.100000)"
fill="#000000" stroke="none">
<path d="M958 1720 c-96 -71 -178 -130 -180 -130 -3 0 -11 26 -18 58 -7 31
-15 62 -19 69 -3 7 -27 -25 -55 -75 -27 -48 -67 -118 -88 -155 l-39 -68 -50
36 c-29 22 -49 31 -49 23 0 -20 59 -320 64 -325 2 -2 46 34 98 81 l93 86 199
0 c190 0 206 -2 323 -31 69 -17 127 -29 129 -26 3 3 1 15 -6 26 -6 12 -8 21
-6 21 3 0 47 -25 97 -56 l92 -55 -6 35 c-3 20 -3 36 -1 36 3 0 48 -30 101 -67
66 -46 94 -60 89 -47 -13 44 -66 250 -66 260 0 6 38 19 85 29 47 10 85 21 85
25 0 3 -72 48 -160 99 l-160 93 44 52 45 52 -137 -18 c-75 -10 -181 -24 -236
-32 l-98 -13 7 73 c4 41 5 74 3 74 -2 0 -83 -58 -180 -130z"/>
<path d="M682 1164 c-48 -18 -103 -67 -128 -116 -63 -122 9 -285 144 -324 120
-35 249 32 283 146 29 97 145 92 189 -8 42 -95 117 -146 215 -146 142 -1 252
127 231 268 -14 89 -105 177 -200 193 -92 15 -205 -52 -242 -142 -14 -33 -23
-43 -34 -38 -29 12 -90 15 -119 5 -29 -10 -30 -9 -42 25 -37 112 -182 179
-297 137z m116 -60 c47 -9 106 -66 121 -113 46 -154 -154 -274 -268 -160 -79
79 -59 208 40 257 47 24 60 25 107 16z m660 -15 c139 -68 109 -271 -45 -304
-107 -22 -213 93 -184 201 12 45 64 101 107 114 47 14 75 11 122 -11z"/>
<path d="M765 950 c-23 -25 -13 -67 20 -82 53 -24 100 46 57 85 -25 23 -55 21
-77 -3z"/>
<path d="M1306 954 c-41 -40 7 -109 59 -86 14 6 27 23 31 37 13 50 -53 86 -90
49z"/>
<path d="M956 681 c-16 -17 -15 -20 23 -54 62 -56 111 -60 173 -16 41 30 54
58 35 76 -14 14 -19 13 -50 -6 -43 -26 -94 -27 -127 -1 -31 24 -33 24 -54 1z"/>
</g>
</svg>
